<svg width="144" height="40" viewBox="0 0 144 40" fill="none" xmlns="http://www.w3.org/2000/svg">
<path d="M4.44444 40C3.22222 40 2.1763 39.5652 1.30667 38.6956C0.437037 37.8259 0.00148148 36.7793 0 35.5556V4.44444C0 3.22222 0.435556 2.1763 1.30667 1.30667C2.17778 0.437037 3.2237 0.00148148 4.44444 0H35.5556C36.7778 0 37.8244 0.435556 38.6956 1.30667C39.5667 2.17778 40.0015 3.2237 40 4.44444V35.5556C40 36.7778 39.5652 37.8244 38.6956 38.6956C37.8259 39.5667 36.7793 40.0015 35.5556 40H4.44444ZM4.44444 35.5556H35.5556V4.44444H4.44444V35.5556ZM8.88889 31.1111H31.1111C31.5556 31.1111 31.8889 30.9074 32.1111 30.5C32.3333 30.0926 32.2963 29.7037 32 29.3333L25.8889 21.1667C25.6667 20.8704 25.3704 20.7222 25 20.7222C24.6296 20.7222 24.3333 20.8704 24.1111 21.1667L18.3333 28.8889L14.2222 23.3889C14 23.0926 13.7037 22.9444 13.3333 22.9444C12.963 22.9444 12.6667 23.0926 12.4444 23.3889L8 29.3333C7.7037 29.7037 7.66667 30.0926 7.88889 30.5C8.11111 30.9074 8.44444 31.1111 8.88889 31.1111Z" fill="#FD0C2C"/>
<path d="M71.4444 26.6667C71.9259 26.6667 72.3244 26.5089 72.64 26.1933C72.9556 25.8778 73.1126 25.48 73.1111 25V15C73.1111 14.5185 72.9533 14.1207 72.6378 13.8067C72.3222 13.4926 71.9244 13.3348 71.4444 13.3333C70.9644 13.3319 70.5667 13.4896 70.2511 13.8067C69.9356 14.1237 69.7778 14.5215 69.7778 15V25C69.7778 25.4815 69.9356 25.88 70.2511 26.1956C70.5667 26.5111 70.9644 26.6681 71.4444 26.6667ZM60.8889 26.6667H65.3333C65.963 26.6667 66.4911 26.4533 66.9178 26.0267C67.3444 25.6 67.557 25.0726 67.5556 24.4444V21.6667C67.5556 21.1852 67.3978 20.7874 67.0822 20.4733C66.7667 20.1593 66.3689 20.0015 65.8889 20C65.4089 19.9985 65.0111 20.1563 64.6956 20.4733C64.38 20.7904 64.2222 21.1881 64.2222 21.6667V23.3333H62V16.6667H65.8889C66.3704 16.6667 66.7689 16.5089 67.0844 16.1933C67.4 15.8778 67.557 15.48 67.5556 15C67.5541 14.52 67.3963 14.1222 67.0822 13.8067C66.7681 13.4911 66.3704 13.3333 65.8889 13.3333H60.8889C60.2593 13.3333 59.7319 13.5467 59.3067 13.9733C58.8815 14.4 58.6681 14.9274 58.6667 15.5556V24.4444C58.6667 25.0741 58.88 25.6022 59.3067 26.0289C59.7333 26.4556 60.2607 26.6681 60.8889 26.6667ZM78.1111 26.6667C78.5926 26.6667 78.9911 26.5089 79.3067 26.1933C79.6222 25.8778 79.7793 25.48 79.7778 25V22.2222H82.5556C83.037 22.2222 83.4356 22.0644 83.7511 21.7489C84.0667 21.4333 84.2237 21.0356 84.2222 20.5556C84.2207 20.0756 84.063 19.6778 83.7489 19.3622C83.4348 19.0467 83.037 18.8889 82.5556 18.8889H79.7778V16.6667H84.7778C85.2593 16.6667 85.6578 16.5089 85.9733 16.1933C86.2889 15.8778 86.4459 15.48 86.4444 15C86.443 14.52 86.2852 14.1222 85.9711 13.8067C85.657 13.4911 85.2593 13.3333 84.7778 13.3333H78.1111C77.6296 13.3333 77.2319 13.4911 76.9178 13.8067C76.6037 14.1222 76.4459 14.52 76.4444 15V25C76.4444 25.4815 76.6022 25.88 76.9178 26.1956C77.2333 26.5111 77.6311 26.6681 78.1111 26.6667ZM56.4444 40C55.2222 40 54.1763 39.5652 53.3067 38.6956C52.437 37.8259 52.0015 36.7793 52 35.5556V4.44444C52 3.22222 52.4356 2.1763 53.3067 1.30667C54.1778 0.437037 55.2237 0.00148148 56.4444 0H87.5556C88.7778 0 89.8244 0.435556 90.6956 1.30667C91.5667 2.17778 92.0015 3.2237 92 4.44444V35.5556C92 36.7778 91.5652 37.8244 90.6956 38.6956C89.8259 39.5667 88.7793 40.0015 87.5556 40H56.4444ZM56.4444 35.5556H87.5556V4.44444H56.4444V35.5556Z" fill="#FD0C2C"/>
<path d="M139.556 0C140.778 0.000105118 141.824 0.435643 142.695 1.30664C143.566 2.17772 144.001 3.22366 144 4.44434V35.5557C144 36.7777 143.565 37.8243 142.695 38.6953C141.826 39.5663 140.779 40.0014 139.556 40H108.444C107.222 40 106.176 39.5649 105.307 38.6953C104.437 37.8258 104.002 36.7792 104 35.5557V4.44434C104 3.22215 104.436 2.17625 105.307 1.30664C106.178 0.437035 107.224 0.00149727 108.444 0H139.556ZM108.444 35.5557H139.556V4.44434H108.444V35.5557Z" fill="#FD0C2C"/>
<path d="M126.222 13.3333C126.85 13.3318 127.378 13.5444 127.804 13.9709C128.231 14.3976 128.445 14.9263 128.445 15.5559V17.7776L131.278 16.2776C131.647 16.0925 132.007 16.1111 132.36 16.3333C132.712 16.5555 132.889 16.8702 132.889 17.2776V22.7219C132.891 23.1293 132.714 23.444 132.362 23.6663C132.009 23.8884 131.648 23.9071 131.278 23.7219L128.445 22.2219V24.4446C128.446 25.0725 128.234 25.6 127.807 26.0266C127.38 26.4533 126.852 26.6663 126.222 26.6663H117.333C116.705 26.6677 116.178 26.4552 115.751 26.0286C115.325 25.602 115.111 25.0741 115.111 24.4446V15.5559C115.112 14.9278 115.326 14.3996 115.751 13.9729C116.177 13.5464 116.704 13.3333 117.333 13.3333H126.222Z" fill="#FD0C2C"/>
</svg>
